<svg width="32" height="32" viewBox="0 0 32 32" fill="none" xmlns="http://www.w3.org/2000/svg">
  <rect width="32" height="32" rx="8" fill="url(#gradient)"/>
  <path d="M16 8C12.134 8 9 11.134 9 15C9 18.866 12.134 22 16 22C19.866 22 23 18.866 23 15C23 11.134 19.866 8 16 8ZM16 20C13.243 20 11 17.757 11 15C11 12.243 13.243 10 16 10C18.757 10 21 12.243 21 15C21 17.757 18.757 20 16 20Z" fill="white"/>
  <path d="M16 12C14.343 12 13 13.343 13 15C13 16.657 14.343 18 16 18C17.657 18 19 16.657 19 15C19 13.343 17.657 12 16 12ZM16 16.5C15.172 16.5 14.5 15.828 14.5 15C14.5 14.172 15.172 13.5 16 13.5C16.828 13.5 17.5 14.172 17.5 15C17.5 15.828 16.828 16.5 16 16.5Z" fill="white"/>
  <defs>
    <linearGradient id="gradient" x1="0" y1="0" x2="32" y2="32" gradientUnits="userSpaceOnUse">
      <stop stop-color="#1A4D8F"/>
      <stop offset="1" stop-color="#6B46C1"/>
    </linearGradient>
  </defs>
</svg>

